<svg xmlns="http://www.w3.org/2000/svg" viewBox="0 0 841.9 595.3">
    <symbol id="burger" viewBox="0 0 24 24" fill="none" xmlns="http://www.w3.org/2000/svg">
        <path d="M2 7.00006H22C22.2652 7.00006 22.5196 6.8947 22.7071 6.70717C22.8946 6.51963 23 6.26528 23 6.00006C23 5.73484 22.8946 5.48049 22.7071 5.29295C22.5196 5.10542 22.2652 5.00006 22 5.00006H2C1.73478 5.00006 1.48043 5.10542 1.29289 5.29295C1.10536 5.48049 1 5.73484 1 6.00006C1 6.26528 1.10536 6.51963 1.29289 6.70717C1.48043 6.8947 1.73478 7.00006 2 7.00006Z" fill="white"/>
        <path d="M22 11.0001H2C1.73478 11.0001 1.48043 11.1054 1.29289 11.293C1.10536 11.4805 1 11.7348 1 12.0001C1 12.2653 1.10536 12.5196 1.29289 12.7072C1.48043 12.8947 1.73478 13.0001 2 13.0001H22C22.2652 13.0001 22.5196 12.8947 22.7071 12.7072C22.8946 12.5196 23 12.2653 23 12.0001C23 11.7348 22.8946 11.4805 22.7071 11.293C22.5196 11.1054 22.2652 11.0001 22 11.0001Z" fill="white"/>
        <path d="M22 17.0001H2C1.73478 17.0001 1.48043 17.1054 1.29289 17.293C1.10536 17.4805 1 17.7348 1 18.0001C1 18.2653 1.10536 18.5196 1.29289 18.7072C1.48043 18.8947 1.73478 19.0001 2 19.0001H22C22.2652 19.0001 22.5196 18.8947 22.7071 18.7072C22.8946 18.5196 23 18.2653 23 18.0001C23 17.7348 22.8946 17.4805 22.7071 17.293C22.5196 17.1054 22.2652 17.0001 22 17.0001Z" fill="white"/>
    </symbol>

    <symbol id="close" viewBox="0 0 24 24" fill="none" xmlns="http://www.w3.org/2000/svg">
        <path d="M20.0029 18.7067L5.29311 3.99699C5.09804 3.80193 4.84268 3.68315 4.58319 3.66677C4.3237 3.6504 4.08134 3.73778 3.90944 3.90969C3.73753 4.0816 3.65015 4.32395 3.66652 4.58344C3.68289 4.84293 3.80168 5.09829 3.99674 5.29336L18.7065 20.0031C18.9016 20.1982 19.1569 20.317 19.4164 20.3333C19.6759 20.3497 19.9183 20.2623 20.0902 20.0904C20.2621 19.9185 20.3495 19.6762 20.3331 19.4167C20.3167 19.1572 20.1979 18.9018 20.0029 18.7067Z" fill="white"/>
        <path d="M5.29353 20.0031L20.0033 5.29335C20.1983 5.09829 20.3171 4.84292 20.3335 4.58343C20.3499 4.32394 20.2625 4.08159 20.0906 3.90968C19.9187 3.73777 19.6763 3.65039 19.4168 3.66677C19.1573 3.68314 18.902 3.80192 18.7069 3.99699L3.99716 18.7067C3.8021 18.9018 3.68332 19.1572 3.66694 19.4167C3.65057 19.6761 3.73795 19.9185 3.90986 20.0904C4.08177 20.2623 4.32412 20.3497 4.58361 20.3333C4.8431 20.3169 5.09847 20.1982 5.29353 20.0031Z" fill="white"/>
    </symbol>

</svg>